# Blender v2.80 (sub 75) OBJ File: ''
# www.blender.org
o Oak_Cylinder.004
v 0.040205 -0.009936 -0.459798
v -0.017231 0.877221 -0.291703
v 0.365332 -0.009936 -0.325126
v 0.262792 0.877221 -0.175714
v 0.500003 -0.009936 0.000000
v 0.378782 0.877221 0.104309
v 0.365332 -0.009936 0.325126
v 0.262792 0.877221 0.384332
v 0.040205 -0.009936 0.459798
v -0.017231 0.877221 0.500322
v -0.284921 -0.009936 0.325126
v -0.297254 0.877221 0.384332
v -0.419593 -0.009936 -0.000000
v -0.413243 0.877221 0.104309
v -0.284921 -0.009936 -0.325126
v -0.297254 0.877221 -0.175714
v -0.000000 1.330965 -0.219874
v 0.221607 1.368615 -0.087742
v 0.296621 1.290718 0.093358
v 0.221607 1.368615 0.274459
v -0.000000 1.330965 0.428493
v -0.169403 1.604010 0.333541
v -0.281926 1.492687 0.128201
v -0.169403 1.604010 -0.124923
v 0.043357 1.721174 -0.250427
v 0.231323 1.777001 -0.134489
v 0.291566 1.854897 0.010951
v 0.231323 1.777001 0.156391
v 0.057436 1.847889 0.260348
v -0.088956 1.881442 0.216332
v -0.157929 1.985806 0.014663
v -0.088956 1.881442 -0.171330
v 0.113603 2.174458 -0.273695
v 0.260825 2.046690 -0.172546
v 0.362442 2.405018 -0.072422
v 0.300024 2.405018 0.078269
v 0.159242 2.449604 0.132204
v -0.020439 2.340585 0.088554
v -0.047471 2.454911 -0.076697
v -0.051338 2.106282 -0.193566
v 0.218257 2.715173 -0.279681
v 0.346017 2.715173 -0.226761
v 0.398937 2.715173 -0.099001
v 0.346017 2.715173 0.028759
v 0.208349 2.670587 0.090162
v 0.109579 2.779606 0.018474
v 0.021273 2.665280 -0.094725
v 0.090497 2.715173 -0.226761
v 0.321642 3.329738 -0.190978
v 0.412007 3.329738 -0.153548
v 0.449437 3.329738 -0.063183
v 0.412007 3.329738 0.027182
v 0.321642 3.329738 0.064613
v 0.231276 3.329738 0.027182
v 0.193846 3.329738 -0.063183
v 0.231276 3.329738 -0.153548
v 0.204377 4.067631 -0.004086
v 0.266673 4.100937 0.025174
v 0.292477 4.114732 0.095815
v 0.266673 4.100937 0.166456
v 0.204377 4.067631 0.195716
v 0.142080 4.034326 0.166456
v 0.116276 4.020530 0.095815
v 0.142080 4.034326 0.025174
v -0.321641 4.426765 -0.054303
v -0.285405 4.439465 -0.038398
v -0.270395 4.444726 -0.000000
v -0.285405 4.439465 0.038398
v -0.321641 4.426765 0.054303
v -0.357878 4.414066 0.038398
v -0.372888 4.408805 -0.000000
v -0.357878 4.414066 -0.038398
v 1.019646 2.194128 0.031200
v 1.035290 2.191185 0.057858
v 1.019646 2.194128 0.084516
v 0.985968 2.243944 0.024319
v 0.986548 2.258428 0.045727
v 0.985968 2.243944 0.067136
v -0.641253 1.789385 0.193122
v -0.713360 1.768942 0.095892
v -0.641253 1.789385 -0.023964
v -0.544477 1.886043 0.137623
v -0.549224 1.945086 0.042131
v -0.544477 1.886043 -0.045938
v -1.000469 2.276060 0.132617
v -1.038032 2.265410 0.081966
v -1.000469 2.276060 0.019529
v -0.950055 2.326412 0.103705
v -0.952528 2.357170 0.053960
v -0.950055 2.326412 0.008082
v 0.396755 2.203497 -0.670968
v 0.462519 2.138639 -0.612680
v 0.328384 2.228199 -0.592974
v 0.444331 2.298256 -0.477962
v 0.489463 2.206632 -0.503572
v 0.355049 2.278984 -0.499323
v 0.541264 2.645583 -0.640532
v 0.561258 2.612973 -0.629366
v 0.514136 2.644829 -0.612663
v 0.553426 2.646625 -0.561122
v 0.568504 2.618340 -0.582299
v 0.521451 2.646791 -0.573318
v -0.168548 2.648880 0.408473
v -0.273986 2.630479 0.386243
v -0.265614 2.689718 0.302086
v -0.104289 2.744595 0.387062
v -0.130928 2.814616 0.350553
v -0.194008 2.776758 0.292905
v -0.337769 3.213344 0.836589
v -0.402836 3.241843 0.821836
v -0.376475 3.271537 0.765983
v -0.267119 3.242712 0.822380
v -0.256168 3.291211 0.798150
v -0.304943 3.293411 0.759890
v 0.112729 2.917294 -0.082383
v 0.169513 2.947664 -0.198114
v 0.276610 2.920524 0.080165
v 0.181129 2.986886 0.021881
v 0.442628 2.947664 -0.084986
v 0.395769 2.947664 0.028142
v 0.282641 2.947664 -0.244973
v 0.395769 2.947664 -0.198114
v 0.404170 3.669537 -0.055564
v 0.444082 3.632491 0.016316
v 0.228186 3.585390 0.016316
v 0.259803 3.592288 -0.064187
v 0.336134 3.608941 0.130164
v 0.259803 3.592288 0.096819
v 0.406020 3.659734 0.102040
v 0.336134 3.608941 -0.097532
v 0.377778 3.809350 -0.028129
v 0.202146 3.792988 0.056065
v 0.300170 3.828314 0.162940
v 0.300170 3.828314 -0.050809
v 0.398194 3.863640 0.056065
v 0.230856 3.803335 -0.019506
v 0.230856 3.803335 0.131637
v 0.375928 3.819152 0.126417
v 0.580661 3.877933 -0.064543
v 0.601210 3.868931 -0.034930
v 0.582710 3.874370 0.000385
v 0.551443 3.928747 -0.053240
v 0.552027 3.952635 -0.018555
v 0.549395 3.932310 0.010427
v 0.706453 4.143887 -0.218666
v 0.728827 4.145510 -0.189053
v 0.709927 4.141691 -0.153738
v 0.656905 4.175204 -0.207363
v 0.646278 4.196606 -0.172678
v 0.653431 4.177400 -0.143696
vn 0.0120 -0.5584 -0.8294
vn 0.7020 0.1828 -0.6883
vn 0.5835 -0.5545 -0.5933
vn 0.8162 -0.5774 -0.0220
vn 0.9865 0.1623 0.0181
vn 0.5741 -0.6156 0.5398
vn 0.6969 0.1050 0.7094
vn 0.0122 -0.6469 0.7624
vn -0.0121 0.0540 0.9984
vn -0.5415 -0.6514 0.5315
vn -0.9945 0.1044 0.0106
vn -0.7793 -0.6262 -0.0222
vn -0.7162 0.1465 -0.6823
vn 0.0500 0.0811 -0.9954
vn -0.0126 0.1715 -0.9851
vn -0.5549 -0.5875 -0.5890
vn -0.9517 -0.2991 0.0691
vn -0.4510 -0.4461 -0.7730
vn -0.5458 -0.1154 -0.8299
vn 0.6544 -0.1103 -0.7480
vn 0.9845 -0.1754 -0.0002
vn 0.6561 0.0569 0.7526
vn -0.7051 0.0595 0.7065
vn 0.1106 0.2007 0.9734
vn -0.3584 0.1698 0.9180
vn -0.7055 0.7087 0.0025
vn -0.7419 -0.1147 0.6606
vn -0.9308 0.0769 -0.3574
vn 0.1848 0.2570 0.9486
vn -0.2795 0.4780 0.8327
vn 0.5987 0.1066 0.7938
vn -0.1100 -0.2709 -0.9563
vn 0.6421 -0.2148 -0.7359
vn 0.1400 0.6208 0.7713
vn 0.5085 0.8603 0.0363
vn 0.2386 0.5932 -0.7688
vn -0.1855 0.8131 -0.5518
vn 0.6890 -0.0882 -0.7194
vn 0.9998 0.0039 -0.0198
vn 0.7118 0.0204 0.7020
vn 0.3421 -0.0571 0.9379
vn 0.9928 -0.1193 -0.0085
vn -0.8020 0.1502 -0.5782
vn -0.6011 0.1218 -0.7898
vn 0.3466 0.3009 0.8884
vn -0.6014 0.7838 0.1546
vn 0.2958 0.3696 0.8808
vn -0.6735 0.2488 -0.6960
vn -0.9867 0.1614 -0.0203
vn -0.6712 0.2471 -0.6988
vn -0.6799 0.2321 -0.6956
vn -0.0064 0.0708 -0.9975
vn -0.8948 0.0445 -0.4443
vn 0.4117 0.2054 0.8878
vn 0.9882 -0.1524 -0.0174
vn -0.5401 0.6946 0.4751
vn 0.7923 0.0720 0.6059
vn 0.7197 -0.0830 0.6892
vn 0.3521 0.9325 0.0806
vn 0.5628 0.5193 -0.6431
vn 0.7625 0.6462 0.0316
vn -0.6932 0.1530 0.7043
vn 0.0034 -0.1104 0.9939
vn -0.7205 -0.0002 0.6934
vn 0.7218 -0.0868 0.6866
vn 0.9996 0.0121 -0.0262
vn 0.7240 -0.0947 0.6833
vn 0.7171 -0.0107 -0.6969
vn 0.0056 0.2287 -0.9734
vn 0.6956 0.1369 -0.7052
vn 0.0239 0.1355 -0.9905
vn -0.9565 0.2905 0.0252
vn -0.0039 0.0334 0.9994
vn 0.9950 -0.0996 -0.0006
vn -0.5649 -0.3990 -0.7222
vn -0.2967 0.4818 -0.8245
vn 0.0280 0.1043 -0.9941
vn -0.9710 -0.2391 0.0054
vn -0.7150 -0.0399 -0.6979
vn 0.0813 -0.1147 0.9901
vn -0.5413 -0.3617 0.7590
vn -0.6407 -0.2808 0.7146
vn 0.5454 0.4832 0.6848
vn 0.5283 0.1271 0.8394
vn -0.0296 0.1907 -0.9812
vn 0.1108 0.3902 -0.9140
vn -0.8011 -0.5971 0.0414
vn 0.0184 0.1007 0.9947
vn -0.9960 0.0842 -0.0284
vn -0.3373 0.6068 0.7197
vn -0.8091 0.2385 0.5370
vn 0.0458 0.9073 0.4180
vn 0.1888 0.9817 -0.0231
vn -0.7831 0.1776 -0.5960
vn 0.1127 0.8430 -0.5259
vn 0.9987 -0.0488 0.0126
vn 0.1267 0.6943 0.7085
vn 0.6912 -0.0311 -0.7220
vn 0.1822 0.9832 -0.0099
vn 0.4119 0.9111 -0.0131
vn -0.0352 0.5999 -0.7992
vn -0.0204 0.9991 -0.0351
vn -0.0677 0.3610 -0.9301
vn -0.6819 0.0719 -0.7278
vn -0.3524 -0.2196 0.9097
vn -0.7277 -0.6844 0.0445
vn -0.9973 0.0417 0.0599
vn 0.0896 0.7350 0.6721
vn -0.4892 0.2688 0.8297
vn -0.4638 0.7841 0.4124
vn -0.6214 0.7454 -0.2412
vn -0.7924 0.2968 -0.5329
vn 0.6619 -0.5710 -0.4856
vn 0.9151 -0.2394 0.3243
vn -0.1546 -0.1557 -0.9756
vn 0.1531 0.6746 -0.7221
vn 0.9760 0.1267 0.1772
vn 0.8404 0.0653 -0.5380
vn 0.4247 0.6744 0.6040
vn -0.7178 -0.6151 0.3263
vn -0.6340 0.7292 -0.2574
vn 0.5795 0.7845 -0.2207
vn -0.0246 0.9513 -0.3071
vn 0.5841 0.7473 0.3168
vn -0.4521 0.6711 -0.5875
vn 0.2697 -0.5340 0.8013
vn -0.8404 0.3890 -0.3773
vn -0.8032 0.2343 0.5476
vn -0.0327 -0.2046 0.9783
vn 0.5369 0.0126 0.8435
vn 0.0767 -0.1869 0.9794
vn -0.9998 -0.0007 0.0215
vn -0.7191 0.1800 -0.6711
vn -0.0305 0.2615 -0.9647
vn 0.5040 0.0344 -0.8630
vn 0.9719 -0.2344 0.0216
vn 0.6287 -0.1588 0.7612
vn -0.6742 -0.1699 0.7187
vn 0.7143 -0.1116 0.6909
vn 0.1986 -0.3797 -0.9035
vn -0.6784 0.2378 -0.6951
vn 0.3746 0.0609 -0.9251
vn -0.3437 0.9378 -0.0480
vn -0.3086 0.4745 -0.8244
vn 0.1920 0.5274 0.8276
vn -0.7980 0.6005 0.0509
vn 0.8806 -0.4736 -0.0145
vn 0.7223 0.3378 0.6035
vn 0.0184 0.7214 0.6923
vn 0.9631 0.2232 -0.1504
s 1
f 1//1 4//2 3//3
f 4//2 5//4 3//3
f 6//5 7//6 5//4
f 8//7 9//8 7//6
f 10//9 11//10 9//8
f 11//10 14//11 13//12
f 16//13 17//14 2//15
f 13//12 16//13 15//16
f 15//16 2//15 1//1
f 13//12 15//16 7//6
f 23//17 81//18 24//19
f 4//2 17//14 18//20
f 8//7 19//21 20//22
f 12//23 23//17 14//11
f 8//7 21//24 10//9
f 16//13 23//17 24//19
f 4//2 19//21 6//5
f 12//23 21//24 22//25
f 31//26 38//27 39//28
f 22//25 29//29 30//30
f 19//21 75//31 20//22
f 18//20 25//32 26//33
f 24//19 25//32 17//14
f 31//26 82//34 30//30
f 20//22 29//29 21//24
f 27//35 76//36 26//33
f 33//37 42//38 34//39
f 29//29 36//40 37//41
f 27//35 34//39 35//42
f 31//26 40//43 32//44
f 29//29 38//27 30//30
f 27//35 36//40 28//45
f 33//37 96//46 40//43
f 34//39 94//47 33//37
f 116//48 55//49 56//50
f 33//37 48//51 41//52
f 38//27 105//53 39//28
f 36//40 45//54 37//41
f 35//42 42//38 43//55
f 39//28 48//51 40//43
f 46//56 106//57 45//54
f 35//42 44//58 36//40
f 135//59 58//60 59//61
f 118//62 53//63 54//64
f 120//65 51//66 52//67
f 122//68 49//69 50//70
f 121//71 56//50 49//69
f 118//62 55//49 115//72
f 120//65 53//63 117//73
f 119//74 50//70 51//66
f 64//75 65//76 57//77
f 132//78 64//75 136//79
f 133//80 62//81 137//82
f 135//59 60//83 138//84
f 134//85 58//60 131//86
f 136//79 57//77 134//85
f 137//82 63//87 132//78
f 133//80 60//83 61//88
f 65//76 71//89 69//90
f 63//87 70//91 71//89
f 61//88 68//92 69//90
f 58//60 67//93 59//61
f 63//87 72//94 64//75
f 62//81 69//90 70//91
f 60//83 67//93 68//92
f 57//77 66//95 58//60
f 74//96 78//97 75//31
f 73//98 77//99 74//96
f 26//33 73//98 18//20
f 28//45 75//31 78//97
f 27//35 78//97 77//99
f 19//21 73//98 74//96
f 83//100 90//101 89//102
f 84//103 87//104 90//101
f 31//26 84//103 83//100
f 22//25 82//34 79//105
f 23//17 79//105 80//106
f 24//19 84//103 32//44
f 87//104 89//102 90//101
f 86//107 88//108 89//102
f 80//106 87//104 81//18
f 82//34 85//109 79//105
f 83//100 88//108 82//34
f 80//106 85//109 86//107
f 94//47 102//110 96//46
f 96//46 99//111 93//112
f 40//43 93//112 32//44
f 34//39 92//113 95//114
f 25//32 92//113 26//33
f 25//32 93//112 91//115
f 97//116 101//117 98//118
f 99//111 100//119 97//116
f 91//115 99//111 97//116
f 95//114 98//118 101//117
f 94//47 101//117 100//119
f 91//115 98//118 92//113
f 104//120 111//121 105//53
f 107//122 114//123 113//124
f 46//56 108//125 107//122
f 37//41 106//57 103//126
f 47//127 105//53 108//125
f 38//27 103//126 104//120
f 110//128 114//123 111//121
f 109//129 113//124 110//128
f 106//57 109//129 103//126
f 107//122 112//130 106//57
f 104//120 109//129 110//128
f 108//125 111//121 114//123
f 43//55 122//68 119//74
f 44//58 117//73 45//54
f 46//56 115//72 47//127
f 41//52 116//48 121//71
f 42//38 121//71 122//68
f 43//55 120//65 44//58
f 46//56 117//73 118//62
f 48//51 115//72 116//48
f 52//67 127//131 53//63
f 54//64 125//132 55//49
f 49//69 126//133 130//134
f 50//70 130//134 123//135
f 52//67 124//136 129//137
f 53//63 128//138 54//64
f 55//49 126//133 56//50
f 51//66 123//135 124//136
f 129//137 133//80 127//131
f 128//138 132//78 125//132
f 130//134 136//79 134//85
f 123//135 134//85 131//86
f 124//136 141//139 129//137
f 127//131 137//82 128//138
f 125//132 136//79 126//133
f 131//86 139//140 123//135
f 142//141 145//142 139//140
f 142//141 149//143 148//144
f 135//59 144//145 143//146
f 138//84 141//139 144//145
f 123//135 140//147 124//136
f 135//59 142//141 131//86
f 147//148 149//143 150//149
f 146//150 148//144 149//143
f 140//147 147//148 141//139
f 143//146 150//149 149//143
f 139//140 146//150 140//147
f 144//145 147//148 150//149
f 1//1 2//15 4//2
f 4//2 6//5 5//4
f 6//5 8//7 7//6
f 8//7 10//9 9//8
f 10//9 12//23 11//10
f 11//10 12//23 14//11
f 16//13 24//19 17//14
f 13//12 14//11 16//13
f 15//16 16//13 2//15
f 15//16 1//1 3//3
f 3//3 5//4 15//16
f 5//4 7//6 15//16
f 7//6 9//8 11//10
f 11//10 13//12 7//6
f 23//17 80//106 81//18
f 4//2 2//15 17//14
f 8//7 6//5 19//21
f 12//23 22//25 23//17
f 8//7 20//22 21//24
f 16//13 14//11 23//17
f 4//2 18//20 19//21
f 12//23 10//9 21//24
f 31//26 30//30 38//27
f 22//25 21//24 29//29
f 19//21 74//96 75//31
f 18//20 17//14 25//32
f 24//19 32//44 25//32
f 31//26 83//100 82//34
f 20//22 28//45 29//29
f 27//35 77//99 76//36
f 33//37 41//52 42//38
f 29//29 28//45 36//40
f 27//35 26//33 34//39
f 31//26 39//28 40//43
f 29//29 37//41 38//27
f 27//35 35//42 36//40
f 33//37 94//47 96//46
f 34//39 95//114 94//47
f 116//48 115//72 55//49
f 33//37 40//43 48//51
f 38//27 104//120 105//53
f 36//40 44//58 45//54
f 35//42 34//39 42//38
f 39//28 47//127 48//51
f 46//56 107//122 106//57
f 35//42 43//55 44//58
f 135//59 131//86 58//60
f 118//62 117//73 53//63
f 120//65 119//74 51//66
f 122//68 121//71 49//69
f 121//71 116//48 56//50
f 118//62 54//64 55//49
f 120//65 52//67 53//63
f 119//74 122//68 50//70
f 64//75 72//94 65//76
f 132//78 63//87 64//75
f 133//80 61//88 62//81
f 135//59 59//61 60//83
f 134//85 57//77 58//60
f 136//79 64//75 57//77
f 137//82 62//81 63//87
f 133//80 138//84 60//83
f 67//93 66//95 65//76
f 65//76 72//94 71//89
f 71//89 70//91 69//90
f 69//90 68//92 67//93
f 67//93 65//76 69//90
f 63//87 62//81 70//91
f 61//88 60//83 68//92
f 58//60 66//95 67//93
f 63//87 71//89 72//94
f 62//81 61//88 69//90
f 60//83 59//61 67//93
f 57//77 65//76 66//95
f 74//96 77//99 78//97
f 73//98 76//36 77//99
f 26//33 76//36 73//98
f 28//45 20//22 75//31
f 27//35 28//45 78//97
f 19//21 18//20 73//98
f 83//100 84//103 90//101
f 84//103 81//18 87//104
f 31//26 32//44 84//103
f 22//25 30//30 82//34
f 23//17 22//25 79//105
f 24//19 81//18 84//103
f 87//104 86//107 89//102
f 86//107 85//109 88//108
f 80//106 86//107 87//104
f 82//34 88//108 85//109
f 83//100 89//102 88//108
f 80//106 79//105 85//109
f 94//47 100//119 102//110
f 96//46 102//110 99//111
f 40//43 96//46 93//112
f 34//39 26//33 92//113
f 25//32 91//115 92//113
f 25//32 32//44 93//112
f 97//116 100//119 101//117
f 99//111 102//110 100//119
f 91//115 93//112 99//111
f 95//114 92//113 98//118
f 94//47 95//114 101//117
f 91//115 97//116 98//118
f 104//120 110//128 111//121
f 107//122 108//125 114//123
f 46//56 47//127 108//125
f 37//41 45//54 106//57
f 47//127 39//28 105//53
f 38//27 37//41 103//126
f 110//128 113//124 114//123
f 109//129 112//130 113//124
f 106//57 112//130 109//129
f 107//122 113//124 112//130
f 104//120 103//126 109//129
f 108//125 105//53 111//121
f 43//55 42//38 122//68
f 44//58 120//65 117//73
f 46//56 118//62 115//72
f 41//52 48//51 116//48
f 42//38 41//52 121//71
f 43//55 119//74 120//65
f 46//56 45//54 117//73
f 48//51 47//127 115//72
f 52//67 129//137 127//131
f 54//64 128//138 125//132
f 49//69 56//50 126//133
f 50//70 49//69 130//134
f 52//67 51//66 124//136
f 53//63 127//131 128//138
f 55//49 125//132 126//133
f 51//66 50//70 123//135
f 129//137 138//84 133//80
f 128//138 137//82 132//78
f 130//134 126//133 136//79
f 123//135 130//134 134//85
f 124//136 140//147 141//139
f 127//131 133//80 137//82
f 125//132 132//78 136//79
f 131//86 142//141 139//140
f 142//141 148//144 145//142
f 142//141 143//146 149//143
f 135//59 138//84 144//145
f 138//84 129//137 141//139
f 123//135 139//140 140//147
f 135//59 143//146 142//141
f 147//148 146//150 149//143
f 146//150 145//142 148//144
f 140//147 146//150 147//148
f 143//146 144//145 150//149
f 139//140 145//142 146//150
f 144//145 141//139 147//148
