# Blender v2.80 (sub 75) OBJ File: 'camp.blend'
# www.blender.org
o Camp_Plane
v -0.973288 -0.078779 1.050614
v 0.979962 -0.011588 1.012314
v -1.051190 0.000184 -1.032718
v 0.962114 -0.019518 -0.982114
v 0.023520 1.498056 1.013496
v -0.015843 1.177086 -0.992672
v -0.984603 -0.006293 -0.335492
v -0.968472 -0.031325 0.354377
v 0.314249 0.960240 1.038520
v 0.575706 0.466660 1.050787
v 0.967813 -0.024229 0.357746
v 0.971522 -0.025609 -0.314419
v -0.329640 0.844950 -0.999349
v -0.667476 0.466590 -1.007671
v -0.540716 0.398218 1.033493
v -0.243669 0.932422 1.015538
v 0.502066 0.389639 -0.922490
v 0.189522 0.816478 -0.952208
v 0.047966 1.313618 0.375786
v -0.010940 1.213274 -0.313272
v -0.546140 0.406300 0.391060
v -0.545840 0.453036 -0.305324
v -0.321008 0.816374 0.403347
v -0.314285 0.857672 -0.307111
v 0.273796 0.901812 0.390122
v 0.232040 0.830090 -0.276388
v 0.512005 0.417536 0.434847
v 0.524800 0.379191 -0.250925
v -0.973288 -0.125164 1.050614
v 0.979962 -0.057973 1.012314
v -1.051190 -0.046202 -1.032718
v 0.962114 -0.065903 -0.982114
v 0.023355 1.451222 1.013554
v -0.015843 1.130701 -0.992672
v -0.984603 -0.052678 -0.335492
v -0.968472 -0.077711 0.354377
v 0.314259 0.913854 1.038520
v 0.575706 0.420275 1.050787
v 0.967813 -0.070614 0.357746
v 0.971522 -0.071994 -0.314419
v -0.329640 0.798565 -0.999349
v -0.667476 0.420204 -1.007671
v -0.540716 0.351833 1.033493
v -0.243462 0.886037 1.015538
v 0.502066 0.343254 -0.922490
v 0.189522 0.770093 -0.952208
v 0.047966 1.267233 0.375786
v -0.010940 1.166888 -0.313272
v -0.546140 0.359915 0.391060
v -0.545840 0.406650 -0.305324
v -0.321008 0.769989 0.403347
v -0.314285 0.811287 -0.307111
v 0.273796 0.855426 0.390122
v 0.232040 0.783705 -0.276388
v 0.512005 0.371151 0.434847
v 0.524800 0.332806 -0.250925
v 0.002444 1.167075 1.003218
v 0.030377 1.165279 1.003449
v 0.002444 1.167075 0.974622
v 0.030377 1.165279 0.974854
v 0.006013 -0.102264 0.973374
v 0.006013 -0.102264 1.001969
v 0.034609 -0.102264 1.001969
v 0.034609 -0.102264 0.973374
v 0.016765 1.193116 1.003210
v 0.136101 1.241269 0.977366
v 0.016765 1.193116 0.974614
v 0.136101 1.241269 0.998417
v 0.125646 1.261628 0.977342
v 0.125646 1.261628 0.998392
v -0.078949 1.238000 0.975861
v -0.078949 1.238000 0.999603
v -0.067045 1.260836 0.975849
v -0.067045 1.260836 0.999592
v 0.019218 0.523241 0.973374
v 0.046226 0.537244 0.973374
v 0.046226 0.537244 1.001969
v 0.019218 0.523241 1.001969
v 0.046226 0.509237 1.001969
v 0.046226 0.509237 0.973374
v 0.056516 0.513637 0.973374
v 0.056516 0.532845 0.973374
v 0.056516 0.532845 1.001969
v 0.056516 0.513637 1.001969
v -0.060595 0.913868 -0.885508
v -0.032662 0.912073 -0.885277
v -0.060595 0.913868 -0.914104
v -0.032662 0.912073 -0.913872
v -0.057026 -0.074946 -0.915353
v -0.057026 -0.074946 -0.886757
v -0.028430 -0.074946 -0.886757
v -0.028430 -0.074946 -0.915353
v -0.046274 0.939910 -0.885517
v 0.073271 0.977687 -0.915647
v -0.046274 0.939910 -0.914112
v 0.073271 0.977687 -0.894596
v 0.062817 0.998046 -0.915671
v 0.062817 0.998046 -0.894621
v -0.149097 0.998097 -0.909892
v -0.148552 0.999029 -0.886714
v -0.133142 1.017525 -0.911060
v -0.132596 1.018458 -0.887883
v -0.048130 0.435452 -0.915032
v -0.020885 0.445396 -0.914972
v -0.020885 0.445397 -0.886377
v -0.043821 0.270035 -0.886757
v -0.016813 0.263227 -0.886757
v -0.016813 0.263227 -0.915353
v -0.264496 -0.051693 0.973593
v -0.419018 -0.016378 0.819072
v -0.373760 -0.031074 0.928335
v 0.409528 -0.034420 0.798015
v 0.255006 -0.061007 0.952536
v 0.364270 -0.043595 0.907278
v -0.281344 -0.021081 -0.779377
v -0.435866 -0.042065 -0.624856
v -0.390608 -0.028757 -0.734119
v 0.272003 -0.064838 -0.779377
v 0.426524 -0.064838 -0.624856
v 0.381266 -0.056288 -0.734119
v -0.446407 -0.042065 -0.155776
v -0.417714 -0.051629 0.341067
v 0.379402 -0.067415 0.341066
v 0.408096 -0.042065 -0.155776
vn 0.6695 0.7428 -0.0027
vn 0.7502 0.6607 -0.0259
vn 0.7701 0.6374 -0.0274
vn -0.8137 0.5812 0.0112
vn -0.7399 0.6726 -0.0087
vn -0.7625 0.6450 0.0499
vn -0.7352 0.6733 0.0785
vn -0.7449 0.6558 0.1225
vn -0.7719 0.6308 0.0796
vn -0.7922 0.6067 0.0655
vn -0.8074 0.5896 0.0228
vn -0.7260 0.6867 0.0361
vn -0.7394 0.6720 0.0407
vn -0.8406 0.5416 0.0092
vn -0.8044 0.5935 0.0267
vn -0.8652 0.4997 -0.0416
vn -0.8325 0.5514 -0.0538
vn -0.7713 0.6364 -0.0092
vn 0.8551 0.5111 -0.0873
vn 0.8369 0.5447 -0.0529
vn 0.8701 0.4919 -0.0325
vn 0.8384 0.5391 -0.0804
vn 0.8813 0.4604 -0.1064
vn 0.8731 0.4726 -0.1195
vn 0.8771 0.4694 -0.1021
vn 0.8770 0.4713 -0.0938
vn 0.8139 0.5780 -0.0581
vn 0.7241 0.6854 -0.0775
vn 0.8212 0.5558 -0.1293
vn 0.6881 0.7254 -0.0197
vn -0.7502 -0.6607 0.0259
vn -0.6695 -0.7428 0.0027
vn -0.7701 -0.6374 0.0274
vn 0.8137 -0.5812 -0.0112
vn 0.7399 -0.6726 0.0087
vn 0.7713 -0.6364 0.0092
vn 0.7352 -0.6733 -0.0785
vn 0.7449 -0.6558 -0.1225
vn 0.7922 -0.6067 -0.0655
vn 0.7625 -0.6450 -0.0499
vn 0.7260 -0.6867 -0.0361
vn 0.8073 -0.5897 -0.0229
vn 0.7394 -0.6720 -0.0407
vn 0.8044 -0.5935 -0.0267
vn 0.8405 -0.5417 -0.0093
vn 0.8652 -0.4998 0.0414
vn 0.8325 -0.5514 0.0537
vn 0.8934 -0.4212 0.1560
vn -0.8551 -0.5111 0.0873
vn -0.8369 -0.5447 0.0529
vn -0.8384 -0.5391 0.0804
vn -0.8731 -0.4727 0.1194
vn -0.8812 -0.4606 0.1063
vn -0.8768 -0.4699 0.1017
vn -0.8770 -0.4713 0.0938
vn -0.8139 -0.5780 0.0581
vn -0.8212 -0.5558 0.1293
vn -0.7241 -0.6854 0.0775
vn -0.6881 -0.7254 0.0197
vn 0.1117 0.0000 -0.9937
vn 0.0221 0.0000 -0.9998
vn 0.0921 0.0000 -0.9957
vn 0.0238 0.0000 -0.9997
vn 0.0336 0.0000 -0.9994
vn -0.9955 0.0000 0.0951
vn -0.9982 0.0000 0.0598
vn -1.0000 0.0000 0.0077
vn -1.0000 0.0000 -0.0069
vn -1.0000 0.0000 0.0087
vn 0.0395 0.0000 0.9992
vn 0.0432 0.0000 0.9991
vn 0.0558 0.0000 0.9984
vn -0.9983 0.0000 0.0587
vn 0.0712 0.0000 0.9975
vn 0.0947 0.0000 0.9955
vn -0.0172 -0.0000 0.9999
vn 0.0523 0.0002 0.9986
vn 0.0157 0.0001 0.9999
vn -0.0385 0.0014 0.9993
vn -0.0795 0.0000 0.9968
vn -0.0419 0.0014 0.9991
vn 1.0000 0.0000 -0.0043
vn 0.9999 0.0000 -0.0141
vn -0.1285 0.0000 -0.9917
vn -0.0805 0.0000 -0.9968
vn 0.0384 0.0000 -0.9993
vn -0.0530 -0.0000 0.9986
vn 0.0559 0.0000 -0.9984
vn 0.0651 0.0000 -0.9979
vn 0.1118 0.0000 -0.9937
vn 0.1742 0.0000 -0.9847
vn 0.9998 0.0000 -0.0186
vn 1.0000 0.0000 -0.0066
vn 1.0000 0.0000 -0.0064
vn 0.5082 -0.2444 -0.8258
vn -0.5294 -0.2475 -0.8115
vn 0.0357 0.5003 -0.8651
vn -0.5840 -0.5718 -0.5762
vn 0.5713 -0.5823 0.5784
vn -0.5840 -0.5718 0.5762
vn 0.4345 -0.2927 -0.8518
vn -0.7016 -0.0012 -0.7125
vn 0.4345 -0.2927 0.8518
vn -0.7018 -0.0022 0.7124
vn 0.7939 -0.1882 -0.5782
vn 0.2235 0.7970 0.5611
vn 0.7980 -0.1860 0.5733
vn -0.5377 -0.2395 0.8084
vn 0.5021 -0.2368 0.8318
vn 0.0279 0.5052 0.8626
vn 0.2206 0.7938 -0.5667
vn -0.1733 0.8119 0.5575
vn -0.7961 -0.1485 -0.5867
vn -0.1698 0.8079 -0.5644
vn -0.8021 -0.1457 0.5792
vn 0.4354 0.2940 0.8509
vn 0.4339 0.2956 -0.8511
vn 0.6667 -0.4400 -0.6016
vn 0.6667 -0.4400 0.6016
vn 0.6667 0.4400 -0.6016
vn 0.6667 0.4400 0.6016
vn 0.4824 -0.2650 -0.8349
vn -0.5444 -0.2327 -0.8059
vn 0.0429 0.5042 -0.8625
vn -0.5891 -0.5676 -0.5752
vn 0.5665 -0.5862 0.5792
vn -0.5893 -0.5672 0.5754
vn 0.7112 -0.0037 -0.7030
vn -0.7064 -0.0153 -0.7077
vn 0.7135 -0.0049 0.7006
vn -0.6144 0.0087 0.7890
vn 0.7805 -0.2191 -0.5855
vn 0.2587 0.7921 0.5528
vn 0.8027 -0.2112 0.5577
vn -0.5475 -0.2376 0.8024
vn 0.4880 -0.2360 0.8403
vn 0.0816 0.5052 0.8591
vn 0.2416 0.7774 -0.5808
vn -0.0789 0.8003 -0.5944
vn -0.0476 0.8408 0.5392
vn -0.8338 -0.0639 -0.5484
vn -0.8003 -0.0217 0.5992
vn 0.7067 0.0154 0.7073
vn 0.7077 0.0183 -0.7062
vn 0.1582 0.9851 0.0670
vn 0.0448 0.9827 0.1798
vn 0.0416 0.9988 0.0273
vn 0.0017 0.9852 0.1715
vn -0.1487 0.9887 0.0214
vn -0.0029 0.9998 0.0174
vn -0.1313 0.9826 0.1313
vn 0.0077 0.9999 0.0153
vn 0.0032 0.9999 -0.0151
vn 0.0627 0.9787 0.1956
vn -0.0237 0.9935 0.1112
vn 0.0198 0.9986 0.0491
vn 0.0198 0.9997 -0.0108
vn 0.0131 0.9997 -0.0208
vn 0.0155 0.9999 0.0028
vn 0.0000 1.0000 0.0095
vn 0.6644 0.7474 -0.0025
vn -0.8933 0.4214 -0.1561
vn -0.6644 -0.7474 0.0025
vn 0.7719 -0.6308 -0.0796
vn -0.8701 -0.4919 0.0325
vn 0.5713 -0.5823 -0.5784
vn 0.5665 -0.5862 -0.5792
s 1
f 12//1 17//2 28//3
f 24//4 6//5 13//6
f 7//7 14//8 3//9
f 22//10 13//6 14//8
f 15//11 8//12 1//13
f 8//12 22//10 7//7
f 15//11 23//14 21//15
f 23//14 22//10 21//15
f 16//16 19//17 23//14
f 23//14 20//18 24//4
f 20//19 18//20 6//21
f 26//22 17//2 18//20
f 9//23 19//24 5//25
f 25//26 20//19 19//24
f 9//23 27//27 25//26
f 25//26 28//3 26//22
f 2//28 27//27 10//29
f 11//30 28//3 27//27
f 45//31 40//32 56//33
f 52//34 34//35 48//36
f 35//37 42//38 50//39
f 50//39 41//40 52//34
f 36//41 43//42 29//43
f 36//41 50//39 49//44
f 43//42 51//45 44//46
f 50//39 51//45 49//44
f 44//46 47//47 33//48
f 51//45 48//36 47//47
f 48//49 46//50 54//51
f 54//51 45//31 56//33
f 47//52 37//53 33//54
f 48//49 53//55 47//52
f 37//53 55//56 38//57
f 53//55 56//33 55//56
f 55//56 30//58 38//57
f 56//33 39//59 55//56
f 34//60 13//61 6//62
f 41//63 14//64 13//61
f 31//65 7//66 3//65
f 36//67 1//68 8//69
f 1//70 43//71 15//72
f 35//73 8//69 7//66
f 38//74 2//75 10//76
f 15//72 44//77 16//78
f 33//79 9//80 5//81
f 12//82 32//83 4//83
f 4//84 45//85 17//86
f 37//87 10//76 9//80
f 42//88 3//89 14//64
f 17//86 46//90 18//91
f 30//92 11//93 2//92
f 16//78 33//79 5//81
f 39//94 12//82 11//93
f 18//91 34//60 6//62
f 60//95 59//96 67//97
f 61//98 63//99 62//100
f 80//101 61//98 75//102
f 62//100 79//103 78//104
f 63//99 80//101 79//103
f 61//98 78//104 75//102
f 66//105 70//106 68//107
f 57//108 58//109 65//110
f 67//97 70//106 69//111
f 67//97 74//112 65//110
f 65//110 68//107 70//106
f 60//95 68//107 58//109
f 67//97 66//105 60//95
f 71//113 74//112 73//114
f 65//110 72//115 57//108
f 59//96 72//115 71//113
f 67//97 71//113 73//114
f 59//96 78//104 57//108
f 77//116 60//95 58//109
f 57//108 77//116 58//109
f 76//117 59//96 60//95
f 76//117 81//118 80//101
f 78//104 79//103 77//116
f 76//117 80//101 75//102
f 84//119 82//120 83//121
f 79//103 81//118 84//119
f 79//103 83//121 77//116
f 76//117 83//121 82//120
f 88//122 87//123 95//124
f 89//125 91//126 90//127
f 108//128 89//125 103//129
f 90//127 107//130 106//131
f 91//126 108//128 107//130
f 89//125 106//131 103//129
f 94//132 98//133 96//134
f 85//135 86//136 93//137
f 95//124 98//133 97//138
f 93//137 101//139 102//140
f 93//137 96//134 98//133
f 88//122 96//134 86//136
f 95//124 94//132 88//122
f 99//141 102//140 101//139
f 93//137 100//142 85//135
f 85//135 99//141 87//123
f 95//124 99//141 101//139
f 103//129 85//135 87//123
f 105//143 88//122 86//136
f 85//135 105//143 86//136
f 104//144 87//123 88//122
f 106//131 107//130 105//143
f 104//144 108//128 103//129
f 107//130 104//144 105//143
f 111//145 109//146 110//147
f 113//148 114//149 112//150
f 120//151 118//152 119//153
f 115//154 117//155 116//156
f 116//156 118//152 115//154
f 110//147 123//157 122//158
f 110//147 113//148 112//150
f 116//156 124//159 119//153
f 122//158 124//159 121//160
f 12//1 4//161 17//2
f 24//4 20//18 6//5
f 7//7 22//10 14//8
f 22//10 24//4 13//6
f 15//11 21//15 8//12
f 8//12 21//15 22//10
f 15//11 16//16 23//14
f 23//14 24//4 22//10
f 16//16 5//162 19//17
f 23//14 19//17 20//18
f 20//19 26//22 18//20
f 26//22 28//3 17//2
f 9//23 25//26 19//24
f 25//26 26//22 20//19
f 9//23 10//29 27//27
f 25//26 27//27 28//3
f 2//28 11//30 27//27
f 11//30 12//1 28//3
f 45//31 32//163 40//32
f 52//34 41//40 34//35
f 35//37 31//164 42//38
f 50//39 42//38 41//40
f 36//41 49//44 43//42
f 36//41 35//37 50//39
f 43//42 49//44 51//45
f 50//39 52//34 51//45
f 44//46 51//45 47//47
f 51//45 52//34 48//36
f 48//49 34//165 46//50
f 54//51 46//50 45//31
f 47//52 53//55 37//53
f 48//49 54//51 53//55
f 37//53 53//55 55//56
f 53//55 54//51 56//33
f 55//56 39//59 30//58
f 56//33 40//32 39//59
f 34//60 41//63 13//61
f 41//63 42//88 14//64
f 31//65 35//73 7//66
f 36//67 29//68 1//68
f 1//70 29//70 43//71
f 35//73 36//67 8//69
f 38//74 30//75 2//75
f 15//72 43//71 44//77
f 33//79 37//87 9//80
f 12//82 40//82 32//83
f 4//84 32//84 45//85
f 37//87 38//74 10//76
f 42//88 31//89 3//89
f 17//86 45//85 46//90
f 30//92 39//94 11//93
f 16//78 44//77 33//79
f 39//94 40//82 12//82
f 18//91 46//90 34//60
f 61//98 64//166 63//99
f 80//101 64//166 61//98
f 62//100 63//99 79//103
f 63//99 64//166 80//101
f 61//98 62//100 78//104
f 66//105 69//111 70//106
f 67//97 65//110 70//106
f 67//97 73//114 74//112
f 65//110 58//109 68//107
f 60//95 66//105 68//107
f 67//97 69//111 66//105
f 71//113 72//115 74//112
f 65//110 74//112 72//115
f 59//96 57//108 72//115
f 67//97 59//96 71//113
f 59//96 75//102 78//104
f 77//116 76//117 60//95
f 57//108 78//104 77//116
f 76//117 75//102 59//96
f 76//117 82//120 81//118
f 84//119 81//118 82//120
f 79//103 80//101 81//118
f 79//103 84//119 83//121
f 76//117 77//116 83//121
f 89//125 92//167 91//126
f 108//128 92//167 89//125
f 90//127 91//126 107//130
f 91//126 92//167 108//128
f 89//125 90//127 106//131
f 94//132 97//138 98//133
f 95//124 93//137 98//133
f 93//137 95//124 101//139
f 93//137 86//136 96//134
f 88//122 94//132 96//134
f 95//124 97//138 94//132
f 99//141 100//142 102//140
f 93//137 102//140 100//142
f 85//135 100//142 99//141
f 95//124 87//123 99//141
f 103//129 106//131 85//135
f 105//143 104//144 88//122
f 85//135 106//131 105//143
f 104//144 103//129 87//123
f 107//130 108//128 104//144
f 116//156 119//153 118//152
f 110//147 112//150 123//157
f 110//147 109//146 113//148
f 116//156 121//160 124//159
f 122//158 123//157 124//159
