# Blender v2.80 (sub 75) OBJ File: ''
# www.blender.org
o Cylinder
v 0.000000 -0.250000 -5.000000
v 0.000000 0.250000 -5.000000
v 0.975452 -0.250000 -4.903926
v 0.975452 0.250000 -4.903926
v 1.913417 -0.250000 -4.619398
v 1.913417 0.250000 -4.619398
v 2.777851 -0.250000 -4.157348
v 2.777851 0.250000 -4.157348
v 3.535534 -0.250000 -3.535534
v 3.535534 0.250000 -3.535534
v 4.157348 -0.250000 -2.777851
v 4.157348 0.250000 -2.777851
v 4.619398 -0.250000 -1.913417
v 4.619398 0.250000 -1.913417
v 4.903926 -0.250000 -0.975452
v 4.903926 0.250000 -0.975452
v 5.000000 -0.250000 -0.000000
v 5.000000 0.250000 -0.000000
v 4.903926 -0.250000 0.975451
v 4.903926 0.250000 0.975451
v 4.619398 -0.250000 1.913416
v 4.619398 0.250000 1.913416
v 4.157348 -0.250000 2.777851
v 4.157348 0.250000 2.777851
v 3.535534 -0.250000 3.535534
v 3.535534 0.250000 3.535534
v 2.777851 -0.250000 4.157348
v 2.777851 0.250000 4.157348
v 1.913416 -0.250000 4.619398
v 1.913416 0.250000 4.619398
v 0.975450 -0.250000 4.903926
v 0.975450 0.250000 4.903926
v -0.000002 -0.250000 5.000000
v -0.000002 0.250000 5.000000
v -0.975454 -0.250000 4.903926
v -0.975454 0.250000 4.903926
v -1.913419 -0.250000 4.619397
v -1.913419 0.250000 4.619397
v -2.777853 -0.250000 4.157347
v -2.777853 0.250000 4.157347
v -3.535536 -0.250000 3.535532
v -3.535536 0.250000 3.535532
v -4.157350 -0.250000 2.777848
v -4.157350 0.250000 2.777848
v -4.619399 -0.250000 1.913413
v -4.619399 0.250000 1.913413
v -4.903927 -0.250000 0.975447
v -4.903927 0.250000 0.975447
v -5.000000 -0.250000 -0.000005
v -5.000000 0.250000 -0.000005
v -4.903925 -0.250000 -0.975457
v -4.903925 0.250000 -0.975457
v -4.619395 -0.250000 -1.913422
v -4.619395 0.250000 -1.913422
v -4.157345 -0.250000 -2.777856
v -4.157345 0.250000 -2.777856
v -3.535529 -0.250000 -3.535538
v -3.535529 0.250000 -3.535538
v -2.777846 -0.250000 -4.157352
v -2.777846 0.250000 -4.157352
v -1.913410 -0.250000 -4.619401
v -1.913410 0.250000 -4.619401
v -0.975444 -0.250000 -4.903928
v -0.975444 0.250000 -4.903928
v 2.686298 0.250000 1.861781
v 2.686298 -0.250000 1.861781
v 1.023359 0.250000 -2.804929
v 1.023359 -0.250000 -2.804929
v 0.633182 0.250000 -2.747286
v 0.633182 -0.250000 -2.747285
v 0.257995 0.250000 -2.576569
v 0.257995 -0.250000 -2.576569
v -0.824400 0.250000 1.343119
v -0.824400 -0.250000 1.343119
v -0.639581 0.250000 1.861780
v -0.639581 -0.250000 1.861780
v -0.938211 0.250000 0.780339
v -0.938211 -0.250000 0.780339
v -0.390855 0.250000 2.316390
v -0.390855 -0.250000 2.316390
v 0.633178 0.250000 3.137426
v 0.633178 -0.250000 3.137426
v 1.023359 0.250000 3.195071
v 1.023359 -0.250000 3.195071
v 0.257992 0.250000 2.966709
v 0.257992 -0.250000 2.966709
v 2.984930 0.250000 -0.390200
v 2.984930 -0.250000 -0.390200
v 2.134500 0.250000 -2.299338
v 2.134500 -0.250000 -2.299338
v 3.023359 0.250000 0.195070
v 3.023359 -0.250000 0.195070
v 2.871118 0.250000 -0.952979
v 2.871118 -0.250000 -0.952979
v 1.413540 0.250000 3.137427
v 1.413540 -0.250000 3.137427
v -0.390852 0.250000 -1.926252
v -0.390852 -0.250000 -1.926252
v -0.087779 0.250000 -2.299340
v -0.087779 -0.250000 -2.299340
v -0.639578 0.250000 -1.471643
v -0.639578 -0.250000 -1.471643
v 2.984930 0.250000 0.780341
v 2.984930 -0.250000 0.780341
v 2.134500 0.250000 2.689480
v 2.134500 -0.250000 2.689480
v 2.437573 0.250000 2.316391
v 2.437573 -0.250000 2.316391
v 2.871119 0.250000 1.343120
v 2.871119 -0.250000 1.343120
v -0.976641 0.250000 0.195068
v -0.976641 -0.250000 0.195068
v -0.087782 0.250000 2.689478
v -0.087782 -0.250000 2.689478
v -0.938211 0.250000 -0.390203
v -0.938211 -0.250000 -0.390203
v 2.437573 0.250000 -1.926250
v 2.437573 -0.250000 -1.926250
v 1.788726 0.250000 2.966709
v 1.788726 -0.250000 2.966709
v 2.686298 0.250000 -1.471640
v 2.686298 -0.250000 -1.471640
v -0.824399 0.250000 -0.952983
v -0.824399 -0.250000 -0.952983
v 1.788726 0.250000 -2.576568
v 1.788726 -0.250000 -2.576568
v 1.413540 0.250000 -2.747285
v 1.413540 -0.250000 -2.747285
vt 1.000000 1.000000
vt 0.968750 0.500000
vt 1.000000 0.500000
vt 0.968750 1.000000
vt 0.937500 0.500000
vt 0.937500 1.000000
vt 0.906250 0.500000
vt 0.906250 1.000000
vt 0.875000 0.500000
vt 0.875000 1.000000
vt 0.843750 0.500000
vt 0.843750 1.000000
vt 0.812500 0.500000
vt 0.812500 1.000000
vt 0.781250 0.500000
vt 0.781250 1.000000
vt 0.750000 0.500000
vt 0.750000 1.000000
vt 0.718750 0.500000
vt 0.718750 1.000000
vt 0.687500 0.500000
vt 0.687500 1.000000
vt 0.656250 0.500000
vt 0.656250 1.000000
vt 0.625000 0.500000
vt 0.625000 1.000000
vt 0.593750 0.500000
vt 0.593750 1.000000
vt 0.562500 0.500000
vt 0.562500 1.000000
vt 0.531250 0.500000
vt 0.531250 1.000000
vt 0.500000 0.500000
vt 0.500000 1.000000
vt 0.468750 0.500000
vt 0.468750 1.000000
vt 0.437500 0.500000
vt 0.437500 1.000000
vt 0.406250 0.500000
vt 0.406250 1.000000
vt 0.375000 0.500000
vt 0.375000 1.000000
vt 0.343750 0.500000
vt 0.343750 1.000000
vt 0.312500 0.500000
vt 0.312500 1.000000
vt 0.281250 0.500000
vt 0.281250 1.000000
vt 0.250000 0.500000
vt 0.250000 1.000000
vt 0.218750 0.500000
vt 0.218750 1.000000
vt 0.187500 0.500000
vt 0.187500 1.000000
vt 0.156250 0.500000
vt 0.156250 1.000000
vt 0.125000 0.500000
vt 0.125000 1.000000
vt 0.093750 0.500000
vt 0.093750 1.000000
vt 0.062500 0.500000
vt 0.341844 0.471731
vt 0.299121 0.384637
vt 0.317850 0.381870
vt 0.062500 1.000000
vt 0.031250 0.500000
vt 0.031250 1.000000
vt 0.000000 0.500000
vt 0.780393 0.381870
vt 0.762384 0.373675
vt 0.750000 0.490000
vt 0.718750 0.841624
vt 0.750000 0.716624
vt 0.718750 0.716624
vt 0.625000 0.841624
vt 0.656250 0.716624
vt 0.625000 0.716624
vt 0.656250 0.841624
vt 0.687500 0.716624
vt 0.218750 0.841624
vt 0.250000 0.716624
vt 0.218750 0.716624
vt 0.781250 0.841624
vt 0.812500 0.716624
vt 0.781250 0.716624
vt 0.750000 0.841624
vt 0.843750 0.841624
vt 0.875000 0.716624
vt 0.843750 0.716624
vt 0.000000 0.841624
vt 0.031250 0.716624
vt 0.000000 0.716624
vt 0.468750 0.841624
vt 0.500000 0.716624
vt 0.468750 0.716624
vt 0.156250 0.841624
vt 0.187500 0.716624
vt 0.156250 0.716624
vt 0.500000 0.841624
vt 0.531250 0.716624
vt 0.031250 0.841624
vt 0.062500 0.716624
vt 0.875000 0.841624
vt 0.906250 0.716624
vt 0.406250 0.841624
vt 0.437500 0.716624
vt 0.406250 0.716624
vt 0.367003 0.138813
vt 0.352456 0.120905
vt 0.419706 0.080294
vt 0.906250 0.841624
vt 0.937500 0.716624
vt 0.593750 0.841624
vt 0.593750 0.716624
vt 0.093750 0.841624
vt 0.125000 0.716624
vt 0.093750 0.716624
vt 0.187500 0.841624
vt 0.562500 0.841624
vt 0.562500 0.716624
vt 0.375000 0.841624
vt 0.375000 0.716624
vt 0.312500 0.841624
vt 0.343750 0.716624
vt 0.312500 0.716624
vt 0.968750 0.841624
vt 1.000000 0.716624
vt 0.968750 0.716624
vt 0.812500 0.841624
vt 0.250000 0.841624
vt 0.281250 0.716624
vt 0.437500 0.841624
vt 0.062500 0.841624
vt 0.937500 0.841624
vt 0.531250 0.841624
vt 0.281250 0.841624
vt 0.125000 0.841624
vt 0.835859 0.107598
vt 0.852456 0.120905
vt 0.883337 0.050447
vt 0.343750 0.841624
vt 0.296822 0.485388
vt 0.250000 0.490000
vt 0.280393 0.381870
vt 0.262384 0.373675
vt 0.203179 0.485389
vt 0.158156 0.471731
vt 0.245787 0.360368
vt 0.116663 0.449553
vt 0.231239 0.342460
vt 0.080295 0.419706
vt 0.219300 0.320639
vt 0.050447 0.383337
vt 0.028269 0.341844
vt 0.210429 0.295743
vt 0.204966 0.268730
vt 0.014612 0.296822
vt 0.010000 0.250000
vt 0.014611 0.203179
vt 0.203121 0.240637
vt 0.383337 0.449553
vt 0.449553 0.383337
vt 0.419706 0.419706
vt 0.367004 0.342460
vt 0.352456 0.360368
vt 0.378942 0.320639
vt 0.485388 0.296822
vt 0.471731 0.341844
vt 0.387813 0.295743
vt 0.393277 0.268730
vt 0.395121 0.240637
vt 0.490000 0.250000
vt 0.335859 0.373675
vt 0.000000 1.000000
vt 0.703179 0.485389
vt 0.796822 0.485388
vt 0.799121 0.384637
vt 0.841844 0.471731
vt 0.883337 0.449553
vt 0.817850 0.381870
vt 0.835859 0.373675
vt 0.852456 0.360368
vt 0.919706 0.419706
vt 0.949553 0.383337
vt 0.867004 0.342460
vt 0.971731 0.341844
vt 0.878942 0.320639
vt 0.985388 0.296822
vt 0.887813 0.295743
vt 0.990000 0.250000
vt 0.893277 0.268730
vt 0.895121 0.240637
vt 0.616663 0.449553
vt 0.658156 0.471731
vt 0.731239 0.342460
vt 0.745787 0.360368
vt 0.550447 0.383337
vt 0.580295 0.419706
vt 0.719300 0.320639
vt 0.514612 0.296822
vt 0.528269 0.341844
vt 0.704966 0.268730
vt 0.710429 0.295743
vt 0.514611 0.203179
vt 0.510000 0.250000
vt 0.703121 0.240637
vt 0.687500 0.841624
vt 0.485388 0.203178
vt 0.393277 0.212544
vt 0.449553 0.116663
vt 0.471731 0.158156
vt 0.378942 0.160634
vt 0.383337 0.050447
vt 0.335859 0.107598
vt 0.296822 0.014612
vt 0.341844 0.028269
vt 0.299121 0.096637
vt 0.317850 0.099404
vt 0.203178 0.014612
vt 0.250000 0.010000
vt 0.262383 0.107598
vt 0.280393 0.099404
vt 0.116663 0.050447
vt 0.158156 0.028269
vt 0.231239 0.138813
vt 0.245786 0.120905
vt 0.050447 0.116663
vt 0.080294 0.080294
vt 0.210429 0.185530
vt 0.219300 0.160635
vt 0.028269 0.158156
vt 0.204966 0.212544
vt 0.387814 0.185530
vt 1.000000 0.841624
vt 0.528269 0.158156
vt 0.704966 0.212544
vt 0.580294 0.080294
vt 0.550447 0.116663
vt 0.710429 0.185530
vt 0.658156 0.028269
vt 0.616663 0.050447
vt 0.731239 0.138813
vt 0.719300 0.160635
vt 0.745786 0.120905
vt 0.750000 0.010000
vt 0.703178 0.014612
vt 0.762384 0.107598
vt 0.780393 0.099404
vt 0.841844 0.028269
vt 0.796822 0.014612
vt 0.799121 0.096637
vt 0.919706 0.080294
vt 0.817850 0.099404
vt 0.971731 0.158156
vt 0.949553 0.116663
vt 0.878943 0.160634
vt 0.867003 0.138813
vt 0.887814 0.185530
vt 0.985388 0.203178
vt 0.893277 0.212544
vn 0.0000 0.6857 -0.7279
vn 0.1420 -0.6857 -0.7139
vn 0.0000 -0.6857 -0.7279
vn 0.1420 0.6857 -0.7139
vn 0.2785 -0.6857 -0.6725
vn 0.2785 0.6857 -0.6725
vn 0.4044 -0.6857 -0.6052
vn 0.4044 0.6857 -0.6052
vn 0.5147 -0.6857 -0.5147
vn 0.5147 0.6857 -0.5147
vn 0.6052 -0.6857 -0.4044
vn 0.6052 0.6857 -0.4044
vn 0.6725 -0.6857 -0.2785
vn 0.6725 0.6857 -0.2785
vn 0.7139 -0.6857 -0.1420
vn 0.7139 0.6857 -0.1420
vn 0.7279 -0.6857 0.0000
vn 0.7279 0.6857 0.0000
vn 0.7139 -0.6857 0.1420
vn 0.7139 0.6857 0.1420
vn 0.6725 -0.6857 0.2785
vn 0.6725 0.6857 0.2785
vn 0.6052 -0.6857 0.4044
vn 0.6052 0.6857 0.4044
vn 0.5147 -0.6857 0.5147
vn 0.5147 0.6857 0.5147
vn 0.4044 -0.6857 0.6052
vn 0.4044 0.6857 0.6052
vn 0.2785 -0.6857 0.6725
vn 0.2785 0.6857 0.6725
vn 0.1420 -0.6857 0.7139
vn 0.1420 0.6857 0.7139
vn 0.0000 -0.6857 0.7279
vn 0.0000 0.6857 0.7279
vn -0.1420 -0.6857 0.7139
vn -0.1420 0.6857 0.7139
vn -0.2785 -0.6857 0.6725
vn -0.2785 0.6857 0.6725
vn -0.4044 -0.6857 0.6052
vn -0.4044 0.6857 0.6052
vn -0.5147 -0.6857 0.5147
vn -0.5147 0.6857 0.5147
vn -0.6052 -0.6857 0.4044
vn -0.6052 0.6857 0.4044
vn -0.6725 -0.6857 0.2785
vn -0.6725 0.6857 0.2785
vn -0.7139 -0.6857 0.1420
vn -0.7139 0.6857 0.1420
vn -0.7279 -0.6857 0.0000
vn -0.7279 0.6857 0.0000
vn -0.7139 -0.6857 -0.1420
vn -0.7139 0.6857 -0.1420
vn -0.6725 -0.6857 -0.2785
vn -0.6725 0.6857 -0.2785
vn -0.6052 -0.6857 -0.4044
vn -0.6052 0.6857 -0.4044
vn -0.5147 -0.6857 -0.5147
vn -0.5147 0.6857 -0.5147
vn -0.4044 -0.6857 -0.6052
vn -0.4044 0.6857 -0.6052
vn -0.2785 -0.6857 -0.6725
vn 0.0000 0.7415 0.6709
vn -0.1903 0.7399 0.6452
vn -0.2785 0.6857 -0.6725
vn -0.1420 -0.6857 -0.7139
vn -0.1420 0.6857 -0.7139
vn 0.1903 -0.7399 0.6452
vn 0.3546 -0.7361 0.5765
vn -0.6853 0.7225 -0.0914
vn -0.6917 -0.7221 0.0000
vn -0.6853 -0.7225 -0.0914
vn -0.5690 0.7281 -0.3822
vn -0.6281 -0.7253 -0.2816
vn -0.5690 -0.7281 -0.3822
vn -0.6281 0.7253 -0.2816
vn -0.6651 -0.7235 -0.1847
vn 0.6853 0.7225 0.0914
vn 0.6917 -0.7221 0.0000
vn 0.6853 -0.7225 0.0914
vn -0.6853 0.7225 0.0914
vn -0.6651 -0.7235 0.1847
vn -0.6853 -0.7225 0.0914
vn -0.6917 0.7221 0.0000
vn -0.6281 0.7253 0.2816
vn -0.5690 -0.7281 0.3822
vn -0.6281 -0.7253 0.2816
vn 0.0000 -0.7415 0.6709
vn 0.1903 0.7399 -0.6452
vn 0.0000 -0.7415 -0.6709
vn 0.1903 -0.7399 -0.6452
vn 0.6281 0.7253 0.2816
vn 0.6651 -0.7235 0.1847
vn 0.6281 -0.7253 0.2816
vn 0.0000 0.7415 -0.6709
vn -0.1903 -0.7399 -0.6452
vn 0.1903 0.7399 0.6452
vn -0.5690 0.7281 0.3822
vn -0.4803 -0.7318 0.4834
vn 0.4803 0.7318 -0.4834
vn 0.3546 -0.7361 -0.5765
vn 0.4803 -0.7318 -0.4834
vn -0.4803 0.7318 -0.4834
vn -0.4803 0.7318 0.4834
vn -0.3546 -0.7361 0.5765
vn -0.4803 -0.7318 -0.4834
vn 0.4803 0.7318 0.4834
vn 0.5690 -0.7281 0.3822
vn 0.4803 -0.7318 0.4834
vn 0.6651 0.7235 0.1847
vn -0.3546 0.7361 -0.5765
vn -0.3546 -0.7361 -0.5765
vn 0.5690 0.7281 -0.3822
vn 0.5690 -0.7281 -0.3822
vn 0.6651 0.7235 -0.1847
vn 0.6281 -0.7253 -0.2816
vn 0.6651 -0.7235 -0.1847
vn -0.1903 -0.7399 0.6452
vn -0.6651 0.7235 0.1847
vn 0.6917 0.7221 0.0000
vn 0.6853 -0.7225 -0.0914
vn 0.3546 0.7361 -0.5765
vn 0.3546 0.7361 0.5765
vn -0.3546 0.7361 0.5765
vn -0.1903 0.7399 -0.6452
vn 0.6853 0.7225 -0.0914
vn 0.5690 0.7281 0.3822
vn 0.6281 0.7253 -0.2816
vn -0.6651 0.7235 -0.1847
s 1
f 2/1/1 3/2/2 1/3/3
f 4/4/4 5/5/5 3/2/2
f 6/6/6 7/7/7 5/5/5
f 8/8/8 9/9/9 7/7/7
f 10/10/10 11/11/11 9/9/9
f 12/12/12 13/13/13 11/11/11
f 14/14/14 15/15/15 13/13/13
f 16/16/16 17/17/17 15/15/15
f 18/18/18 19/19/19 17/17/17
f 20/20/20 21/21/21 19/19/19
f 22/22/22 23/23/23 21/21/21
f 24/24/24 25/25/25 23/23/23
f 26/26/26 27/27/27 25/25/25
f 28/28/28 29/29/29 27/27/27
f 30/30/30 31/31/31 29/29/29
f 32/32/32 33/33/33 31/31/31
f 34/34/34 35/35/35 33/33/33
f 36/36/36 37/37/37 35/35/35
f 38/38/38 39/39/39 37/37/37
f 40/40/40 41/41/41 39/39/39
f 42/42/42 43/43/43 41/41/41
f 44/44/44 45/45/45 43/43/43
f 46/46/46 47/47/47 45/45/45
f 48/48/48 49/49/49 47/47/47
f 50/50/50 51/51/51 49/49/49
f 52/52/52 53/53/53 51/51/51
f 54/54/54 55/55/55 53/53/53
f 56/56/56 57/57/57 55/55/55
f 58/58/58 59/59/59 57/57/57
f 60/60/60 61/61/61 59/59/59
f 6/62/6 67/63/62 127/64/63
f 62/65/64 63/66/65 61/61/61
f 64/67/66 1/68/3 63/66/65
f 70/69/67 72/70/68 1/71/3
f 103/72/69 92/73/70 104/74/71
f 107/75/72 66/76/73 108/77/74
f 65/78/75 110/79/76 66/76/73
f 115/80/77 112/81/78 116/82/79
f 87/83/80 94/84/81 88/85/82
f 91/86/83 88/85/82 92/73/70
f 121/87/84 118/88/85 122/89/86
f 67/90/62 70/91/67 68/92/87
f 81/93/88 84/94/89 82/95/90
f 101/96/91 124/97/92 102/98/93
f 83/99/94 96/100/95 84/94/89
f 69/101/96 72/102/68 70/91/67
f 117/103/97 90/104/98 118/88/85
f 113/105/99 86/106/100 114/107/101
f 107/108/72 105/109/102 26/110/26
f 89/111/103 126/112/104 90/104/98
f 105/113/102 108/77/74 106/114/105
f 99/115/106 98/116/107 100/117/108
f 123/118/109 116/82/79 124/97/92
f 119/119/110 106/114/105 120/120/111
f 79/121/112 114/107/101 80/122/113
f 73/123/114 76/124/115 74/125/116
f 127/126/63 68/127/87 128/128/117
f 93/129/118 122/89/86 94/84/81
f 111/130/119 78/131/120 112/81/78
f 110/79/76 103/72/69 104/74/71
f 85/132/121 82/95/90 86/106/100
f 71/133/122 100/117/108 72/102/68
f 125/134/123 128/128/117 126/112/104
f 95/135/124 120/120/111 96/100/95
f 77/136/125 74/125/116 78/131/120
f 97/137/126 102/98/93 98/116/107
f 120/138/111 106/139/105 27/140/27
f 75/141/127 80/122/113 76/124/115
f 2/1/1 4/4/4 3/2/2
f 4/4/4 6/6/6 5/5/5
f 6/6/6 8/8/8 7/7/7
f 8/8/8 10/10/10 9/9/9
f 10/10/10 12/12/12 11/11/11
f 12/12/12 14/14/14 13/13/13
f 14/14/14 16/16/16 15/15/15
f 16/16/16 18/18/18 17/17/17
f 18/18/18 20/20/20 19/19/19
f 20/20/20 22/22/22 21/21/21
f 22/22/22 24/24/24 23/23/23
f 24/24/24 26/26/26 25/25/25
f 26/26/26 28/28/28 27/27/27
f 28/28/28 30/30/30 29/29/29
f 30/30/30 32/32/32 31/31/31
f 32/32/32 34/34/34 33/33/33
f 34/34/34 36/36/36 35/35/35
f 36/36/36 38/38/38 37/37/37
f 38/38/38 40/40/40 39/39/39
f 40/40/40 42/42/42 41/41/41
f 42/42/42 44/44/44 43/43/43
f 44/44/44 46/46/46 45/45/45
f 46/46/46 48/48/48 47/47/47
f 48/48/48 50/50/50 49/49/49
f 50/50/50 52/52/52 51/51/51
f 52/52/52 54/54/54 53/53/53
f 54/54/54 56/56/56 55/55/55
f 56/56/56 58/58/58 57/57/57
f 58/58/58 60/60/60 59/59/59
f 60/60/60 62/65/64 61/61/61
f 6/62/6 4/142/4 67/63/62
f 4/142/4 2/143/1 69/144/96
f 69/144/96 2/143/1 71/145/122
f 2/143/1 64/146/66 71/145/122
f 64/146/66 62/147/64 99/148/106
f 71/145/122 64/146/66 99/148/106
f 62/147/64 60/149/60 97/150/126
f 60/149/60 58/151/58 101/152/91
f 62/147/64 97/150/126 99/148/106
f 58/151/58 56/153/56 101/152/91
f 56/153/56 54/154/54 123/155/109
f 123/155/109 54/154/54 115/156/77
f 54/154/54 52/157/52 115/156/77
f 52/157/52 50/158/50 115/156/77
f 50/158/50 48/159/48 111/160/119
f 50/158/50 111/160/119 115/156/77
f 8/161/8 6/62/6 127/64/63
f 12/162/12 10/163/10 117/164/97
f 10/163/10 8/161/8 89/165/103
f 12/162/12 117/164/97 121/166/84
f 16/167/16 14/168/14 93/169/118
f 14/168/14 12/162/12 121/166/84
f 16/167/16 93/169/118 87/170/80
f 91/171/83 18/172/18 87/170/80
f 18/172/18 16/167/16 87/170/80
f 4/142/4 69/144/96 67/63/62
f 56/153/56 123/155/109 101/152/91
f 93/169/118 14/168/14 121/166/84
f 101/152/91 97/150/126 60/149/60
f 117/164/97 10/163/10 89/165/103
f 125/173/123 89/165/103 8/161/8
f 127/64/63 125/173/123 8/161/8
f 62/65/64 64/67/66 63/66/65
f 64/67/66 2/174/1 1/68/3
f 63/175/65 1/71/3 72/70/68
f 1/71/3 3/176/2 70/69/67
f 70/69/67 3/176/2 68/177/87
f 3/176/2 5/178/5 68/177/87
f 5/178/5 7/179/7 128/180/117
f 126/181/104 7/179/7 90/182/98
f 7/179/7 9/183/9 90/182/98
f 9/183/9 11/184/11 118/185/85
f 90/182/98 9/183/9 118/185/85
f 11/184/11 13/186/13 122/187/86
f 13/186/13 15/188/15 94/189/81
f 11/184/11 122/187/86 118/185/85
f 15/188/15 17/190/17 88/191/82
f 17/190/17 92/192/70 88/191/82
f 7/179/7 126/181/104 128/180/117
f 59/193/59 61/194/61 98/195/107
f 61/194/61 63/175/65 100/196/108
f 98/195/107 61/194/61 100/196/108
f 55/197/55 57/198/57 102/199/93
f 57/198/57 59/193/59 102/199/93
f 102/199/93 59/193/59 98/195/107
f 51/200/51 53/201/53 116/202/79
f 53/201/53 55/197/55 124/203/92
f 124/203/92 55/197/55 102/199/93
f 47/204/47 49/205/49 112/206/78
f 49/205/49 51/200/51 116/202/79
f 116/202/79 112/206/78 49/205/49
f 124/203/92 116/202/79 53/201/53
f 15/188/15 88/191/82 94/189/81
f 94/189/81 122/187/86 13/186/13
f 5/178/5 128/180/117 68/177/87
f 72/70/68 100/196/108 63/175/65
f 103/72/69 91/86/83 92/73/70
f 107/75/72 65/78/75 66/76/73
f 65/78/75 109/207/128 110/79/76
f 115/80/77 111/130/119 112/81/78
f 87/83/80 93/129/118 94/84/81
f 91/86/83 87/83/80 88/85/82
f 121/87/84 117/103/97 118/88/85
f 67/90/62 69/101/96 70/91/67
f 81/93/88 83/99/94 84/94/89
f 101/96/91 123/118/109 124/97/92
f 83/99/94 95/135/124 96/100/95
f 69/101/96 71/133/122 72/102/68
f 117/103/97 89/111/103 90/104/98
f 113/105/99 85/132/121 86/106/100
f 20/208/20 18/172/18 91/171/83
f 20/208/20 91/171/83 103/209/69
f 24/210/24 22/211/22 65/212/75
f 22/211/22 20/208/20 103/209/69
f 28/213/28 26/110/26 105/109/102
f 26/110/26 24/210/24 107/108/72
f 28/213/28 105/109/102 119/214/110
f 32/215/32 30/216/30 83/217/94
f 30/216/30 28/213/28 119/214/110
f 83/217/94 30/216/30 95/218/124
f 36/219/36 34/220/34 85/221/121
f 34/220/34 32/215/32 81/222/88
f 81/222/88 32/215/32 83/217/94
f 40/223/40 38/224/38 79/225/112
f 38/224/38 36/219/36 113/226/99
f 113/226/99 36/219/36 85/221/121
f 44/227/44 42/228/42 73/229/114
f 42/228/42 40/223/40 75/230/127
f 73/229/114 42/228/42 75/230/127
f 48/159/48 46/231/46 77/232/125
f 46/231/46 44/227/44 73/229/114
f 77/232/125 111/160/119 48/159/48
f 73/229/114 77/232/125 46/231/46
f 22/211/22 103/209/69 109/233/128
f 22/211/22 109/233/128 65/212/75
f 34/220/34 81/222/88 85/221/121
f 95/218/124 30/216/30 119/214/110
f 24/210/24 65/212/75 107/108/72
f 79/225/112 75/230/127 40/223/40
f 113/226/99 79/225/112 38/224/38
f 89/111/103 125/134/123 126/112/104
f 105/113/102 107/75/72 108/77/74
f 99/115/106 97/137/126 98/116/107
f 123/118/109 115/80/77 116/82/79
f 119/119/110 105/113/102 106/114/105
f 79/121/112 113/105/99 114/107/101
f 73/123/114 75/141/127 76/124/115
f 127/126/63 67/234/62 68/127/87
f 93/129/118 121/87/84 122/89/86
f 111/130/119 77/136/125 78/131/120
f 110/79/76 109/207/128 103/72/69
f 85/132/121 81/93/88 82/95/90
f 71/133/122 99/115/106 100/117/108
f 125/134/123 127/126/63 128/128/117
f 95/135/124 119/119/110 120/120/111
f 77/136/125 73/123/114 74/125/116
f 97/137/126 101/96/91 102/98/93
f 45/235/45 47/204/47 78/236/120
f 47/204/47 112/206/78 78/236/120
f 41/237/41 43/238/43 74/239/116
f 43/238/43 45/235/45 74/239/116
f 74/239/116 45/235/45 78/236/120
f 37/240/37 39/241/39 80/242/113
f 39/241/39 41/237/41 76/243/115
f 37/240/37 80/242/113 114/244/101
f 33/245/33 35/246/35 86/247/100
f 35/246/35 37/240/37 114/244/101
f 33/245/33 86/247/100 82/248/90
f 29/249/29 31/250/31 84/251/89
f 31/250/31 33/245/33 82/248/90
f 84/251/89 31/250/31 82/248/90
f 25/252/25 27/140/27 106/139/105
f 27/140/27 29/249/29 120/138/111
f 96/253/95 29/249/29 84/251/89
f 21/254/21 23/255/23 66/256/73
f 23/255/23 25/252/25 108/257/74
f 21/254/21 66/256/73 110/258/76
f 17/190/17 19/259/19 92/192/70
f 19/259/19 21/254/21 104/260/71
f 104/260/71 21/254/21 110/258/76
f 104/260/71 92/192/70 19/259/19
f 29/249/29 96/253/95 120/138/111
f 66/256/73 23/255/23 108/257/74
f 41/237/41 74/239/116 76/243/115
f 76/243/115 80/242/113 39/241/39
f 106/139/105 108/257/74 25/252/25
f 114/244/101 86/247/100 35/246/35
f 75/141/127 79/121/112 80/122/113
