# Blender v2.80 (sub 75) OBJ File: ''
# www.blender.org
o Fir-tree_Cylinder.003
v -0.000000 0.000083 -0.134979
v -0.000000 5.155241 -0.030541
v 0.095445 0.000083 -0.095445
v 0.021596 5.155241 -0.021596
v 0.134979 0.000083 0.000000
v 0.030541 5.155241 0.000000
v 0.095445 0.000083 0.095445
v 0.021596 5.155241 0.021596
v -0.000000 0.000083 0.134979
v -0.000000 5.155241 0.030541
v -0.095445 0.000083 0.095445
v -0.021596 5.155241 0.021596
v -0.134979 0.000083 -0.000000
v -0.030541 5.155241 -0.000000
v -0.095445 0.000083 -0.095445
v -0.021596 5.155241 -0.021596
vn 0.0000 0.0202 -0.9998
vn 0.7070 0.0202 -0.7070
vn 0.9998 0.0202 0.0000
vn 0.7069 0.0202 0.7070
vn 0.7070 0.0202 0.7070
vn 0.0000 0.0202 0.9998
vn -0.7070 0.0202 0.7069
vn -0.7070 0.0202 0.7070
vn -0.9998 0.0202 0.0000
vn -0.7070 0.0202 -0.7070
s 1
f 2//1 3//2 1//1
f 4//2 5//3 3//2
f 6//3 7//4 5//3
f 8//5 9//6 7//4
f 10//6 11//7 9//6
f 12//8 13//9 11//7
f 14//9 15//10 13//9
f 16//10 1//1 15//10
f 2//1 4//2 3//2
f 4//2 6//3 5//3
f 6//3 8//5 7//4
f 8//5 10//6 9//6
f 10//6 12//8 11//7
f 12//8 14//9 13//9
f 14//9 16//10 15//10
f 16//10 2//1 1//1
